<svg width="12" height="12" viewBox="0 0 12 12" fill="none" xmlns="http://www.w3.org/2000/svg">
<path d="M7.27013 6.87535L9.8104 6.87535C10.5118 6.87535 11.0805 6.30666 11.0805 5.60522C11.0805 4.90378 10.5119 4.33509 9.8104 4.33508L7.27013 4.33508L7.27012 1.79482C7.27012 1.09338 6.70144 0.524692 5.99999 0.524692C5.29854 0.524692 4.72986 1.09338 4.72986 1.79482L4.72987 4.33508L2.18961 4.33509C1.48817 4.33508 0.919475 4.90378 0.919475 5.60523C0.919476 6.30667 1.48816 6.87536 2.18961 6.87536L4.72987 6.87535L4.72987 9.41562C4.72986 10.1171 5.29855 10.6857 6 10.6858C6.70144 10.6858 7.27013 10.1171 7.27013 9.41562L7.27013 6.87535Z" fill="white"/>
</svg>
